<svg width="38" height="38" viewBox="0 0 38 38" fill="none" xmlns="http://www.w3.org/2000/svg">
<circle cx="19" cy="19" r="19" fill="#F39325"/>
<path d="M26.188 13.5941C26.0321 13.5988 25.8842 13.6639 25.7755 13.7758L16.5997 22.9516L12.8239 19.1758C12.7686 19.1182 12.7024 19.0722 12.6291 19.0405C12.5559 19.0089 12.477 18.9921 12.3972 18.9913C12.3174 18.9905 12.2382 19.0056 12.1643 19.0358C12.0904 19.066 12.0232 19.1106 11.9668 19.1671C11.9103 19.2235 11.8657 19.2906 11.8355 19.3645C11.8054 19.4385 11.7902 19.5176 11.791 19.5975C11.7919 19.6773 11.8086 19.7561 11.8403 19.8294C11.8719 19.9027 11.9179 19.9689 11.9755 20.0242L16.1755 24.2242C16.288 24.3367 16.4406 24.3999 16.5997 24.3999C16.7588 24.3999 16.9114 24.3367 17.0239 24.2242L26.6239 14.6242C26.7106 14.5399 26.7698 14.4314 26.7938 14.3129C26.8178 14.1944 26.8054 14.0714 26.7583 13.9601C26.7112 13.8487 26.6315 13.7542 26.5297 13.6889C26.428 13.6236 26.3089 13.5906 26.188 13.5941Z" fill="white"/>
</svg>
